<svg width="217" height="32" viewBox="0 0 217 32" fill="none" xmlns="http://www.w3.org/2000/svg">
<path d="M40.2734 23H43.3691L44.4336 19.582H49.4141L50.4785 23H53.5742L48.6621 8.9082H45.1953L40.2734 23ZM46.8945 11.6426H46.9531L48.7305 17.375H45.1172L46.8945 11.6426ZM60.5371 23.2441C64.1699 23.2441 66.4355 21.1445 66.4355 18.0195V8.9082H63.4863V17.7559C63.4863 19.582 62.4316 20.7441 60.5371 20.7441C58.6426 20.7441 57.5781 19.582 57.5781 17.7559V8.9082H54.6289V18.0195C54.6289 21.1543 56.9238 23.2441 60.5371 23.2441ZM68.7891 23H71.7383V17.8926H74.1016L76.7285 23H80.0684L77.0996 17.4531C78.6621 16.8379 79.6484 15.2949 79.6484 13.4395V13.4199C79.6484 10.5879 77.7734 8.9082 74.6094 8.9082H68.7891V23ZM71.7383 15.6562V11.2129H74.248C75.7031 11.2129 76.6309 12.0723 76.6309 13.4199V13.4395C76.6309 14.8262 75.752 15.6562 74.2871 15.6562H71.7383ZM87.959 23.2441C92.1484 23.2441 94.7559 20.4414 94.7559 15.959V15.9395C94.7559 11.4668 92.1387 8.66406 87.959 8.66406C83.7891 8.66406 81.1621 11.457 81.1621 15.9395V15.959C81.1621 20.4414 83.7695 23.2441 87.959 23.2441ZM87.959 20.7441C85.6445 20.7441 84.1699 18.9082 84.1699 15.959V15.9395C84.1699 12.9902 85.6543 11.1641 87.959 11.1641C90.2734 11.1641 91.748 13 91.748 15.9395V15.959C91.748 18.8789 90.3027 20.7441 87.959 20.7441ZM96.6602 23H99.6094V17.8926H101.973L104.6 23H107.939L104.971 17.4531C106.533 16.8379 107.52 15.2949 107.52 13.4395V13.4199C107.52 10.5879 105.645 8.9082 102.48 8.9082H96.6602V23ZM99.6094 15.6562V11.2129H102.119C103.574 11.2129 104.502 12.0723 104.502 13.4199V13.4395C104.502 14.8262 103.623 15.6562 102.158 15.6562H99.6094ZM108.574 23H111.67L112.734 19.582H117.715L118.779 23H121.875L116.963 8.9082H113.496L108.574 23ZM115.195 11.6426H115.254L117.031 17.375H113.418L115.195 11.6426Z" fill="#FF462D"/>
<path d="M127.285 23H133.525C136.533 23 138.398 21.4473 138.398 18.9668V18.9473C138.398 17.0918 136.982 15.6953 135.02 15.5488V15.4902C136.562 15.2852 137.725 13.9766 137.725 12.4434V12.4238C137.725 10.2656 136.064 8.9082 133.418 8.9082H127.285V23ZM132.656 11.0957C134.023 11.0957 134.824 11.7402 134.824 12.8535V12.873C134.824 14.0449 133.926 14.7383 132.354 14.7383H130.234V11.0957H132.656ZM132.705 16.7402C134.443 16.7402 135.391 17.4434 135.391 18.752V18.7715C135.391 20.0996 134.463 20.8027 132.773 20.8027H130.234V16.7402H132.705ZM146.436 23.2441C150.625 23.2441 153.232 20.4414 153.232 15.959V15.9395C153.232 11.4668 150.615 8.66406 146.436 8.66406C142.266 8.66406 139.639 11.457 139.639 15.9395V15.959C139.639 20.4414 142.246 23.2441 146.436 23.2441ZM146.436 20.7441C144.121 20.7441 142.646 18.9082 142.646 15.959V15.9395C142.646 12.9902 144.131 11.1641 146.436 11.1641C148.75 11.1641 150.225 13 150.225 15.9395V15.959C150.225 18.8789 148.779 20.7441 146.436 20.7441ZM161.494 23.2441C165.684 23.2441 168.291 20.4414 168.291 15.959V15.9395C168.291 11.4668 165.674 8.66406 161.494 8.66406C157.324 8.66406 154.697 11.457 154.697 15.9395V15.959C154.697 20.4414 157.305 23.2441 161.494 23.2441ZM161.494 20.7441C159.18 20.7441 157.705 18.9082 157.705 15.959V15.9395C157.705 12.9902 159.189 11.1641 161.494 11.1641C163.809 11.1641 165.283 13 165.283 15.9395V15.959C165.283 18.8789 163.838 20.7441 161.494 20.7441ZM170.195 23H173.145V18.6836L174.463 17.0527L178.496 23H182.021L176.611 15.1289L181.66 8.9082H178.379L173.213 15.3535H173.145V8.9082H170.195V23ZM183.262 23H186.211V8.9082H183.262V23ZM188.555 23H191.494V13.7715H191.553L197.939 23H200.498V8.9082H197.559V18.0684H197.5L191.133 8.9082H188.555V23ZM209.199 23.2441C213.125 23.2441 215.449 20.9199 215.449 17.082V15.4609H209.512V17.6582H212.578L212.568 17.8633C212.49 19.6016 211.172 20.7441 209.248 20.7441C206.904 20.7441 205.42 18.9375 205.42 15.8809V15.8711C205.42 12.8828 206.816 11.1641 209.141 11.1641C210.732 11.1641 211.855 11.9551 212.324 13.3223L212.363 13.4199H215.322L215.293 13.2832C214.824 10.6367 212.52 8.66406 209.131 8.66406C205 8.66406 202.412 11.3887 202.412 15.9004V15.9102C202.412 20.5 204.99 23.2441 209.199 23.2441Z" fill="white"/>
<path d="M4 30.6667L4 14.6667C4.0003 12.5685 4.55073 10.5071 5.59638 8.68802C6.64203 6.86897 8.14636 5.35588 9.9593 4.29967C11.7722 3.24347 13.8304 2.68108 15.9286 2.66859C18.0267 2.6561 20.0914 3.19395 21.9168 4.22849C23.7422 5.26304 25.2644 6.75811 26.3317 8.56458C27.3989 10.371 27.9738 12.4258 27.9991 14.5238C28.0244 16.6218 27.4992 18.6898 26.4758 20.5215C25.4524 22.3531 23.9666 23.8844 22.1667 24.9627L13.3333 30.0627L13.3333 26.3693L4 30.6667ZM16 21.3333C17.7681 21.3333 19.4638 20.6309 20.714 19.3807C21.9643 18.1305 22.6667 16.4348 22.6667 14.6667C22.6667 12.8985 21.9643 11.2029 20.714 9.95261C19.4638 8.70237 17.7681 7.99999 16 7.99999C14.2319 7.99999 12.5362 8.70237 11.286 9.95261C10.0357 11.2029 9.33333 12.8985 9.33333 14.6667C9.33333 16.4348 10.0357 18.1305 11.286 19.3807C12.5362 20.6309 14.2319 21.3333 16 21.3333V21.3333Z" fill="#FF462D"/>
</svg>
